<?xml version="1.0" encoding="UTF-8" standalone="no"?>
<svg
   width="1.29em"
   height="1em"
   viewBox="0 0 256 199"
   version="1.1"
   id="svg10"
   sodipodi:docname="mastercard.svg"
   inkscape:version="1.2.2 (b0a8486541, 2022-12-01)"
   xmlns:inkscape="http://www.inkscape.org/namespaces/inkscape"
   xmlns:sodipodi="http://sodipodi.sourceforge.net/DTD/sodipodi-0.dtd"
   xmlns="http://www.w3.org/2000/svg"
   xmlns:svg="http://www.w3.org/2000/svg">
  <defs
     id="defs14" />
  <sodipodi:namedview
     id="namedview12"
     pagecolor="#ffffff"
     bordercolor="#666666"
     borderopacity="1.0"
     inkscape:showpageshadow="2"
     inkscape:pageopacity="0.0"
     inkscape:pagecheckerboard="0"
     inkscape:deskcolor="#d1d1d1"
     showgrid="false"
     inkscape:zoom="3.0842648"
     inkscape:cx="127.74519"
     inkscape:cy="82.677727"
     inkscape:window-width="1906"
     inkscape:window-height="1066"
     inkscape:window-x="7"
     inkscape:window-y="7"
     inkscape:window-maximized="1"
     inkscape:current-layer="svg10" />
  <path
     fill="#ff5f00"
     d="m 93.298,36.072964 h 69.15 V 160.32396 h -69.15 z"
     id="path4" />
  <path
     fill="#eb001b"
     d="m 97.689,98.198964 c 0,-25.245 11.854,-47.637 30.074,-62.126 -13.39,-10.537 -30.293,-16.903 -48.733,-16.903 -43.687,0 -79.03,35.343 -79.03,79.029 0,43.684996 35.343,79.028996 79.029,79.028996 18.44,0 35.343,-6.366 48.734,-16.904 -18.22,-14.269 -30.074,-36.88 -30.074,-62.124996 z"
     id="path6" />
  <path
     fill="#f79e1b"
     d="m 255.746,98.198964 c 0,43.684996 -35.343,79.028996 -79.029,79.028996 -18.44,0 -35.343,-6.366 -48.734,-16.904 18.44,-14.488 30.075,-36.88 30.075,-62.124996 0,-25.245 -11.855,-47.637 -30.075,-62.126 13.39,-10.537 30.294,-16.903 48.734,-16.903 43.686,0 79.03,35.563 79.03,79.029 z"
     id="path8" />
</svg>
