<svg xmlns="http://www.w3.org/2000/svg" width="1em" height="1em" viewBox="0 0 24 24"><path fill="currentColor" d="M12.025 11.675q-.175-.025-.337-.088q-.163-.062-.288-.187L7.625 7.625L4.575 9.85q-.5.35-1.037.075Q3 9.65 3 9.025q0-.25.1-.45t.3-.35L7.125 5.5q.15-.125.325-.162q.175-.038.35-.013t.338.087q.162.063.287.188L12.2 9.375l7.225-5.225q.5-.35 1.037-.075q.538.275.538.9q0 .25-.112.45q-.113.2-.313.35L12.7 11.5q-.15.125-.325.162q-.175.038-.35.013Zm0 9q-.175 0-.35-.075t-.3-.2L5.8 15l-1.225.875q-.5.35-1.037.075Q3 15.675 3 15.05q0-.25.112-.463q.113-.212.313-.337l1.9-1.375q.15-.125.313-.163q.162-.037.337-.012q.175.025.337.087q.163.063.288.188l5.525 5.375l3.9-3.125q.125-.125.287-.175q.163-.05.338-.05H20q.425 0 .712.287q.288.288.288.713t-.288.712Q20.425 17 20 17h-3l-4.325 3.45q-.15.125-.312.175q-.163.05-.338.05Z"/></svg>