<?xml version="1.0" encoding="UTF-8" standalone="no"?>
<svg
   width="1em"
   height="1em"
   viewBox="0 0 24 24"
   version="1.1"
   id="svg4"
   sodipodi:docname="i_stock_tesla.svg"
   inkscape:version="1.2.2 (b0a8486541, 2022-12-01)"
   xmlns:inkscape="http://www.inkscape.org/namespaces/inkscape"
   xmlns:sodipodi="http://sodipodi.sourceforge.net/DTD/sodipodi-0.dtd"
   xmlns="http://www.w3.org/2000/svg"
   xmlns:svg="http://www.w3.org/2000/svg">
  <defs
     id="defs8" />
  <sodipodi:namedview
     id="namedview6"
     pagecolor="#ffffff"
     bordercolor="#666666"
     borderopacity="1.0"
     inkscape:showpageshadow="2"
     inkscape:pageopacity="0.0"
     inkscape:pagecheckerboard="0"
     inkscape:deskcolor="#d1d1d1"
     showgrid="false"
     inkscape:zoom="25.573695"
     inkscape:cx="13.392668"
     inkscape:cy="12.55196"
     inkscape:window-width="949"
     inkscape:window-height="1066"
     inkscape:window-x="963"
     inkscape:window-y="7"
     inkscape:window-maximized="1"
     inkscape:current-layer="svg4" />
  <path
     fill="currentColor"
     d="m12 5.362l2.475-3.026s4.245.09 8.471 2.054c-1.082 1.636-3.231 2.438-3.231 2.438c-.146-1.439-1.154-1.79-4.354-1.79L12 24L8.619 5.034c-3.18 0-4.188.354-4.335 1.792c0 0-2.146-.795-3.229-2.43C5.28 2.431 9.525 2.34 9.525 2.34L12 5.362l-.004.002H12v-.002zm0-3.899c3.415-.03 7.326.528 11.328 2.28c.535-.968.672-1.395.672-1.395C19.625.612 15.528.015 12 0C8.472.015 4.375.61 0 2.349c0 0 .195.525.672 1.396C4.674 1.989 8.585 1.435 12 1.46v.003z"
     id="path2"
     style="fill:#e82127;fill-opacity:1" />
</svg>
