<?xml version="1.0" encoding="UTF-8" standalone="no"?>
<svg
   width="1em"
   height="1em"
   viewBox="0 0 24 24"
   version="1.1"
   id="svg4"
   sodipodi:docname="i_stock_apple.svg"
   inkscape:version="1.2.2 (b0a8486541, 2022-12-01)"
   xmlns:inkscape="http://www.inkscape.org/namespaces/inkscape"
   xmlns:sodipodi="http://sodipodi.sourceforge.net/DTD/sodipodi-0.dtd"
   xmlns="http://www.w3.org/2000/svg"
   xmlns:svg="http://www.w3.org/2000/svg">
  <defs
     id="defs8" />
  <sodipodi:namedview
     id="namedview6"
     pagecolor="#ffffff"
     bordercolor="#666666"
     borderopacity="1.0"
     inkscape:showpageshadow="2"
     inkscape:pageopacity="0.0"
     inkscape:pagecheckerboard="0"
     inkscape:deskcolor="#d1d1d1"
     showgrid="false"
     inkscape:zoom="25.573695"
     inkscape:cx="17.557103"
     inkscape:cy="12.082728"
     inkscape:window-width="1920"
     inkscape:window-height="1080"
     inkscape:window-x="0"
     inkscape:window-y="0"
     inkscape:window-maximized="1"
     inkscape:current-layer="svg4" />
  <path
     fill="currentColor"
     d="m 18.354193,22.6548 c -1.253789,1.215407 -2.622722,1.023502 -3.94048,0.447782 -1.39452,-0.588513 -2.673896,-0.614101 -4.145179,0 C 8.4262311,23.895795 7.453905,23.665508 6.3536411,22.6548 0.11028377,16.219536 1.0314347,6.419512 8.1191808,6.0612865 c 1.7271583,0.089557 2.9297722,0.9467387 3.9404802,1.0235013 1.509664,-0.3070504 2.955359,-1.1898202 4.567374,-1.0746763 1.931858,0.1535252 3.390347,0.9211511 4.34988,2.3028778 -3.991654,2.3924347 -3.044915,7.6506717 0.614101,9.1219547 -0.729245,1.919065 -1.675983,3.825335 -3.249617,5.23265 z M 11.931723,5.9845239 C 11.739817,3.1315143 14.055488,0.77746144 16.716591,0.54717362 17.087611,3.8479652 13.72285,6.304368 11.931723,5.9845239 Z"
     id="path2"
     style="stroke-width:1.27937" />
</svg>
